<svg xmlns="http://www.w3.org/2000/svg" width="880" height="256" viewBox="0 0 880 256" fill="none" role="img" aria-label="Portfolio — Personal Site"><title>Portfolio — Personal Site</title><rect x="0.5" y="0.5" width="879" height="255" rx="14" fill="#0F1513" stroke="#25332D" stroke-width="1"/><clipPath id="ph"><rect width="880" height="256" rx="14"/></clipPath><g clip-path="url(#ph)"><rect x="0" y="0" width="880" height="4" rx="0" fill="#4FD1A5"/></g><text x="40" y="56" font-family="'Segoe UI',Roboto,'Helvetica Neue',Helvetica,Arial,sans-serif" font-size="10" fill="#5C6F66" font-weight="600" letter-spacing="1.8">SINGLE-PAGE &#183; VANILLA JS &#183; NO BUILD STEP</text><text x="40" y="106" font-family="'Segoe UI',Roboto,'Helvetica Neue',Helvetica,Arial,sans-serif" font-size="40" fill="#EAF0EC" font-weight="600" letter-spacing="-1">Portfolio</text><text x="270" y="106" font-family="'Segoe UI',Roboto,'Helvetica Neue',Helvetica,Arial,sans-serif" font-size="16" fill="#4FD1A5" letter-spacing="0.4">Personal Site</text><rect x="40" y="126" width="56" height="2" rx="1" fill="#4FD1A5"/><text x="40" y="162" font-family="'Segoe UI',Roboto,'Helvetica Neue',Helvetica,Arial,sans-serif" font-size="15" fill="#EAF0EC">A single-page personal portfolio for Mark Bryan Gabriel — vanilla</text><text x="40" y="186" font-family="'Segoe UI',Roboto,'Helvetica Neue',Helvetica,Arial,sans-serif" font-size="15" fill="#EAF0EC">HTML, CSS, and JavaScript. No framework, no build step.</text><text x="40" y="210" font-family="'Segoe UI',Roboto,'Helvetica Neue',Helvetica,Arial,sans-serif" font-size="14" fill="#93A79C">Split-screen layout, light/dark theme, WCAG AA accessible.</text><rect x="654" y="55" width="186" height="112" rx="6" fill="#151E1A" stroke="#25332D" stroke-width="1.4"/><circle cx="664" cy="66" r="2.2" fill="#25332D"/><circle cx="671" cy="66" r="2.2" fill="#25332D"/><circle cx="678" cy="66" r="2.2" fill="#25332D"/><line x1="654" y1="74" x2="840" y2="74" stroke="#25332D" stroke-width="1"/><rect x="660" y="80" width="36" height="80" rx="2" fill="#121815"/><circle cx="678" cy="94" r="8" fill="#1B2622" stroke="#4FD1A5" stroke-width="1.2"/><rect x="666" y="108" width="24" height="2" rx="1" fill="#25332D"/><rect x="666" y="114" width="18" height="2" rx="1" fill="#25332D"/><rect x="666" y="128" width="20" height="2" rx="1" fill="#4FD1A5" fill-opacity="0.55"/><rect x="666" y="136" width="20" height="2" rx="1" fill="#25332D"/><rect x="666" y="144" width="20" height="2" rx="1" fill="#25332D"/><rect x="706" y="80" width="70" height="6" rx="1.5" fill="#4FD1A5"/><rect x="706" y="96" width="110" height="2" rx="1" fill="#25332D"/><rect x="706" y="104" width="126" height="2" rx="1" fill="#25332D"/><rect x="706" y="112" width="90" height="2" rx="1" fill="#25332D"/><rect x="706" y="120" width="70" height="2" rx="1" fill="#25332D"/><rect x="706" y="136" width="52" height="14" rx="3" fill="none" stroke="#4FD1A5" stroke-width="1.2"/><circle cx="828" cy="66" r="7" fill="#4FD1A5"/><circle cx="831" cy="63" r="5.5" fill="#151E1A"/></svg>
